Coordinates
version=1
nRows=17
nColumns=40
inDegrees=yes

Units are S.I. units (second, meters, Newtons, ...)
If the header above contains a line with 'inDegrees', this indicates whether rotational values are in degrees (yes) or radians (no).

endheader
time	pelvis_tilt	pelvis_list	pelvis_rotation	pelvis_tx	pelvis_ty	pelvis_tz	hip_flexion_r	hip_adduction_r	hip_rotation_r	knee_angle_r	knee_angle_r_beta	ankle_angle_r	subtalar_angle_r	mtp_angle_r	hip_flexion_l	hip_adduction_l	hip_rotation_l	knee_angle_l	knee_angle_l_beta	ankle_angle_l	subtalar_angle_l	mtp_angle_l	lumbar_extension	lumbar_bending	lumbar_rotation	arm_flex_r	arm_add_r	arm_rot_r	elbow_flex_r	pro_sup_r	wrist_flex_r	wrist_dev_r	arm_flex_l	arm_add_l	arm_rot_l	elbow_flex_l	pro_sup_l	wrist_flex_l	wrist_dev_l
      2.75000000	    -35.24551383	      3.51662578	     -0.10352526	     -0.35832848	      0.76615903	     -1.12757944	     13.20337743	     -9.88165418	      6.63845779	     68.53260901	      1.19611967	    -13.70276930	      0.00000000	      0.00000000	     85.39269640	      3.79957264	     -6.05414137	     86.83133482	      1.51549269	     24.54011722	      0.00000000	      0.00000000	     -5.93449702	    -10.35138840	      1.20529012	     89.96985811	      2.21540354	      8.12911088	     51.08471954	     74.25117226	      0.00000000	      0.00000000	     89.97529930	     -4.11581862	     13.93796462	     53.33115619	     61.07922148	      0.00000000	      0.00000000
      2.75500000	    -35.39449220	      3.33577751	      0.04975811	     -0.35822401	      0.76493832	     -1.12762853	     13.18291065	     -9.77178048	      6.31184888	     68.44617725	      1.19461115	    -13.82771953	      0.00000000	      0.00000000	     85.67396720	      3.82162458	     -5.92892538	     87.05495847	      1.51939566	     24.49184051	      0.00000000	      0.00000000	     -5.80231188	    -10.15390402	      0.98378204	     89.96984795	      2.35234216	      8.39045377	     51.16964792	     70.88306531	      0.00000000	      0.00000000	     89.97533567	     -4.19379452	     14.04182803	     53.42261719	     58.88251732	      0.00000000	      0.00000000
      2.76000000	    -35.18352284	      3.63827232	      0.11480262	     -0.35740133	      0.76449455	     -1.12771486	     12.78074590	    -10.18294221	      6.20102499	     68.29130538	      1.19190813	    -14.03207454	      0.00000000	      0.00000000	     85.42154551	      3.87169509	     -6.35818100	     87.14945327	      1.52104490	     24.61325480	      0.00000000	      0.00000000	     -6.05675419	    -10.50254227	      0.74567342	     89.96980504	      2.49617607	      8.60270817	     51.18598591	     68.38773978	      0.00000000	      0.00000000	     89.97539052	     -4.27590159	     14.13416030	     53.52600129	     57.27061386	      0.00000000	      0.00000000
      2.76500000	    -35.27275100	      3.65454895	      0.23669783	     -0.35725251	      0.76356324	     -1.12776445	     12.75100055	    -10.31626975	      5.93198934	     68.24588562	      1.19111541	    -14.13151572	      0.00000000	      0.00000000	     85.58238220	      3.92044701	     -6.42613351	     87.27622889	      1.52325755	     24.65218637	      0.00000000	      0.00000000	     -5.99571851	    -10.53700720	      0.52720153	     89.96980139	      2.63691239	      8.76241737	     51.27827676	     65.54096920	      0.00000000	      0.00000000	     89.97542511	     -4.34228706	     14.19333059	     53.61978348	     55.56774921	      0.00000000	      0.00000000
      2.77000000	    -35.65763510	      3.20654340	      0.47921591	     -0.35796270	      0.76240783	     -1.12788281	     13.03838746	     -9.86866365	      5.62900090	     68.26293358	      1.19141295	    -14.18208937	      0.00000000	      0.00000000	     86.15293527	      3.94658970	     -6.04247936	     87.44387456	      1.52618352	     24.51487353	      0.00000000	      0.00000000	     -5.66354429	    -10.03790850	      0.26030525	     89.96980420	      2.78049000	      8.85966697	     51.33550325	     63.53853425	      0.00000000	      0.00000000	     89.97549986	     -4.39360980	     14.18835464	     53.65283272	     54.34256348	      0.00000000	      0.00000000
      2.77500000	    -35.57385990	      3.27357321	      0.45335400	     -0.35730447	      0.76146734	     -1.12760313	     12.75770674	     -9.96683832	      5.60067321	     68.11290835	      1.18879451	    -13.42203099	      0.00000000	      0.00000000	     86.17150053	      3.78313124	     -6.24078309	     87.73448998	      1.53125572	     24.07667798	      0.00000000	      0.00000000	     -5.70472520	    -10.15190900	      0.20523469	     89.96978861	      2.97048573	      8.83555939	     51.23129836	     61.45159420	      0.00000000	      0.00000000	     89.97549918	     -4.37174022	     14.16194121	     53.49900934	     53.13100705	      0.00000000	      0.00000000
      2.78000000	    -35.59247768	      3.38553949	      0.55314083	     -0.35707453	      0.76071055	     -1.12770703	     12.69100802	    -10.18160654	      5.42887367	     68.06029341	      1.18787621	    -14.14561396	      0.00000000	      0.00000000	     86.16032899	      3.85287145	     -6.44052667	     87.75881410	      1.53168025	     24.64218725	      0.00000000	      0.00000000	     -5.74919202	    -10.26593203	     -0.06283135	     89.96976367	      3.10528698	      9.01882061	     51.43840561	     59.70657638	      0.00000000	      0.00000000	     89.97552111	     -4.57253685	     14.22997895	     53.70924372	     52.04255490	      0.00000000	      0.00000000
      2.78500000	    -35.64364364	      3.43014570	      0.69258712	     -0.35687325	      0.75994912	     -1.12787540	     12.62826675	    -10.30562149	      5.23354179	     68.01532969	      1.18709144	    -14.12875251	      0.00000000	      0.00000000	     86.27749622	      3.93372668	     -6.54052957	     87.88220295	      1.53383380	     24.51217851	      0.00000000	      0.00000000	     -5.72636307	    -10.29102376	     -0.28591635	     89.96978737	      3.32803525	      7.15723708	     50.74775304	     77.81132730	      0.00000000	      0.00000000	     89.97561599	     -4.70089540	     13.09818749	     52.92249732	     68.23638744	      0.00000000	      0.00000000
      2.79000000	    -35.60136289	      3.52942946	      0.82689677	     -0.35645813	      0.75943825	     -1.12809433	     12.46211367	    -10.52573295	      4.98416684	     67.95496439	      1.18603787	    -14.27217975	      0.00000000	      0.00000000	     86.23974707	      4.05246368	     -6.68025626	     87.95716201	      1.53514208	     24.61169244	      0.00000000	      0.00000000	     -5.83355083	    -10.41325967	     -0.55037460	     89.96973985	      3.36574338	      7.61179844	     50.84846590	     73.94743496	      0.00000000	      0.00000000	     89.97562985	     -4.77599367	     13.28570338	     53.02727839	     65.07705612	      0.00000000	      0.00000000
      2.79500000	    -35.55721479	      3.43847281	      0.96720238	     -0.35609741	      0.75869484	     -1.12811592	     12.25958350	    -10.48328742	      4.75882898	     67.85749182	      1.18433665	    -14.41428485	      0.00000000	      0.00000000	     86.26344818	      4.08522595	     -6.66977144	     88.14375737	      1.53839878	     24.61682089	      0.00000000	      0.00000000	     -5.90116657	    -10.33114593	     -0.74934264	     89.96975105	      3.43645974	      7.93048540	     50.92612411	     70.27980143	      0.00000000	      0.00000000	     89.97561664	     -4.79504590	     13.45017891	     53.04703157	     62.13293367	      0.00000000	      0.00000000
      2.80000000	    -35.56432199	      3.38248189	      1.06771986	     -0.35592498	      0.75804345	     -1.12809066	     12.16080704	    -10.45952924	      4.60924635	     67.80138668	      1.18335743	    -14.55818189	      0.00000000	      0.00000000	     86.32621956	      4.09191388	     -6.69172114	     88.27287848	      1.54065237	     24.63483145	      0.00000000	      0.00000000	     -5.93484362	    -10.30110676	     -0.91265785	     89.96973612	      3.55175721	      8.08971920	     51.04107409	     67.32013348	      0.00000000	      0.00000000	     89.97561810	     -4.79842141	     13.58272418	     53.09700825	     59.72114220	      0.00000000	      0.00000000
      2.80500000	    -35.04779924	      3.58056048	      1.05578301	     -0.35634181	      0.75780784	     -1.12767255	     11.63210571	    -10.68388190	      4.60073022	     67.92292636	      1.18547870	    -14.46939224	      0.00000000	      0.00000000	     85.90253529	      4.07405365	     -6.91309784	     88.41676023	      1.54316358	     24.69443979	      0.00000000	      0.00000000	     -6.56059274	    -10.94357467	      0.77265087	     89.97002291	      1.28589720	      6.88199354	     51.47868932	     78.55645759	      0.00000000	      0.00000000	     89.97379913	     -3.38421356	     12.83877317	     56.82940559	     17.13602838	      0.00000000	      0.00000000
      2.81000000	    -35.10481559	      3.61222796	      1.12721377	     -0.35613911	      0.75690962	     -1.12766465	     11.59992970	    -10.75373380	      4.53476516	     67.92510200	      1.18551667	    -14.42207669	      0.00000000	      0.00000000	     86.02445289	      4.11023994	     -6.98153488	     88.55563275	      1.54558736	     24.73514508	      0.00000000	      0.00000000	     -6.50898189	    -10.97307759	      0.65729107	     89.96995636	      1.37844283	      7.28552886	     51.55046942	     73.99116571	      0.00000000	      0.00000000	     89.97377914	     -3.44347136	     12.80687575	     56.58682014	     21.00170624	      0.00000000	      0.00000000
      2.81500000	    -35.11091364	      3.62520252	      1.18034492	     -0.35592733	      0.75632527	     -1.12764897	     11.52451737	    -10.74855582	      4.53244224	     67.86605263	      1.18448607	    -14.47884092	      0.00000000	      0.00000000	     86.06542843	      4.12379836	     -7.04511571	     88.64109798	      1.54707901	     24.77390092	      0.00000000	      0.00000000	     -6.53443694	    -10.99910784	      0.53726493	     89.96993654	      1.48754813	      7.54248788	     51.66010803	     70.70739532	      0.00000000	      0.00000000	     89.97377460	     -3.49327737	     12.79025880	     56.36428430	     23.96507306	      0.00000000	      0.00000000
      2.82000000	    -35.10836359	      3.59424590	      1.20795681	     -0.35581152	      0.75581628	     -1.12749139	     11.49262670	    -10.72120708	      4.50937664	     67.85007263	      1.18420717	    -14.54376900	      0.00000000	      0.00000000	     86.11251081	      4.10624327	     -7.03808958	     88.75590645	      1.54908280	     24.77307444	      0.00000000	      0.00000000	     -6.56328683	    -10.98608301	      0.50970902	     89.96995862	      1.50936454	      7.76855120	     51.82491051	     67.80625400	      0.00000000	      0.00000000	     89.97379618	     -3.48089651	     12.81133164	     56.10635049	     26.67806722	      0.00000000	      0.00000000
      2.82500000	    -35.13109442	      3.59586488	      1.24871217	     -0.35555229	      0.75514363	     -1.12738873	     11.47134344	    -10.78464665	      4.40046371	     67.85692690	      1.18432679	    -14.48555322	      0.00000000	      0.00000000	     86.18052214	      4.09602683	     -7.09512845	     88.88369188	      1.55131307	     24.75435770	      0.00000000	      0.00000000	     -6.55094902	    -11.05292864	      0.50027705	     89.96995112	      1.48971868	      6.48853414	     51.52447107	     79.49661131	      0.00000000	      0.00000000	     89.97379489	     -3.38283629	     12.72435373	     56.30053133	     20.25073063	      0.00000000	      0.00000000
      2.83000000	    -35.19795732	      3.60056081	      1.29610637	     -0.35544374	      0.75447282	     -1.12733862	     11.51783428	    -10.78390893	      4.40899266	     67.87303614	      1.18460795	    -14.54914139	      0.00000000	      0.00000000	     86.29015660	      4.13417838	     -7.11386638	     88.97315953	      1.55287458	     24.84973165	      0.00000000	      0.00000000	     -6.50133606	    -11.07375153	      0.35876599	     89.96996090	      1.58430682	      6.98879406	     51.61340877	     74.95202912	      0.00000000	      0.00000000	     89.97374894	     -3.49401984	     12.74342505	     56.06719174	     23.43277280	      0.00000000	      0.00000000
